<?xml version="1.0" encoding="UTF-8" standalone="no" ?>
<!DOCTYPE svg PUBLIC "-//W3C//DTD SVG 1.1//EN" "http://www.w3.org/Graphics/SVG/1.1/DTD/svg11.dtd">
<svg xmlns="http://www.w3.org/2000/svg" xmlns:xlink="http://www.w3.org/1999/xlink" version="1.1" width="500" height="500" viewBox="0 0 500 500" xml:space="preserve">
<desc>Created with Fabric.js 4.6.0</desc>
<defs>
</defs>
<g transform="matrix(1 0 0 1 230.8 220.86)" id="tNVkKE_OSZvLFXuAB1Ock"  >
<path style="stroke: rgb(255,255,255); stroke-width: 10; stroke-dasharray: none; stroke-linecap: butt; stroke-dashoffset: 0; stroke-linejoin: miter; stroke-miterlimit: 4; fill: none; fill-rule: nonzero; opacity: 1;" vector-effect="non-scaling-stroke"  transform=" translate(-59.5, -59.5)" d="M 59.5 0 C 92.344 0 119 26.656 119 59.5 C 119 92.344 92.344 119 59.5 119 C 26.656 119 0 92.344 0 59.5 C 0 26.656 26.656 0 59.5 0 z" stroke-linecap="round" />
</g>
<g transform="matrix(1 0 0 1 250 276.21)" id="nE0NGmBAz87KYVqN2UxyD"  >
<path style="stroke: rgb(255,255,255); stroke-width: 10; stroke-dasharray: none; stroke-linecap: butt; stroke-dashoffset: 0; stroke-linejoin: miter; stroke-miterlimit: 4; fill: none; fill-rule: nonzero; opacity: 1;" vector-effect="non-scaling-stroke"  transform=" translate(-59.5, -59.5)" d="M 59.5 0 C 92.344 0 119 26.656 119 59.5 C 119 92.344 92.344 119 59.5 119 C 26.656 119 0 92.344 0 59.5 C 0 26.656 26.656 0 59.5 0 z" stroke-linecap="round" />
</g>
<g transform="matrix(1 0 0 1 289.01 215.09)" id="wZKo8zxeSZy4o3acRqxTa"  >
<path style="stroke: rgb(255,255,255); stroke-width: 10; stroke-dasharray: none; stroke-linecap: butt; stroke-dashoffset: 0; stroke-linejoin: miter; stroke-miterlimit: 4; fill: none; fill-rule: nonzero; opacity: 1;" vector-effect="non-scaling-stroke"  transform=" translate(-59.5, -59.5)" d="M 59.5 0 C 92.344 0 119 26.656 119 59.5 C 119 92.344 92.344 119 59.5 119 C 26.656 119 0 92.344 0 59.5 C 0 26.656 26.656 0 59.5 0 z" stroke-linecap="round" />
</g>
</svg>